<svg id="visual" viewBox="0 0 1980 1060" width="1980" height="1060" xmlns="http://www.w3.org/2000/svg" xmlns:xlink="http://www.w3.org/1999/xlink" version="1.1"><rect x="0" y="0" width="1980" height="1060" fill="#FFE5EC"></rect><path d="M0 896L47.2 849.7C94.3 803.3 188.7 710.7 283 678.2C377.3 645.7 471.7 673.3 566 690.7C660.3 708 754.7 715 848.8 755.2C943 795.3 1037 868.7 1131.2 876.8C1225.3 885 1319.7 828 1414 798.7C1508.3 769.3 1602.7 767.7 1697 792.3C1791.3 817 1885.7 868 1932.8 893.5L1980 919L1980 0L1932.8 0C1885.7 0 1791.3 0 1697 0C1602.7 0 1508.3 0 1414 0C1319.7 0 1225.3 0 1131.2 0C1037 0 943 0 848.8 0C754.7 0 660.3 0 566 0C471.7 0 377.3 0 283 0C188.7 0 94.3 0 47.2 0L0 0Z" fill="#ffb3c6"></path><path d="M0 598L47.2 612.3C94.3 626.7 188.7 655.3 283 672.8C377.3 690.3 471.7 696.7 566 713.7C660.3 730.7 754.7 758.3 848.8 740.5C943 722.7 1037 659.3 1131.2 599.8C1225.3 540.3 1319.7 484.7 1414 462.7C1508.3 440.7 1602.7 452.3 1697 464.5C1791.3 476.7 1885.7 489.3 1932.8 495.7L1980 502L1980 0L1932.8 0C1885.7 0 1791.3 0 1697 0C1602.7 0 1508.3 0 1414 0C1319.7 0 1225.3 0 1131.2 0C1037 0 943 0 848.8 0C754.7 0 660.3 0 566 0C471.7 0 377.3 0 283 0C188.7 0 94.3 0 47.2 0L0 0Z" fill="#ffa8be"></path><path d="M0 658L47.2 660.3C94.3 662.7 188.7 667.3 283 624.8C377.3 582.3 471.7 492.7 566 474C660.3 455.3 754.7 507.7 848.8 536.5C943 565.3 1037 570.7 1131.2 536.5C1225.3 502.3 1319.7 428.7 1414 437.8C1508.3 447 1602.7 539 1697 545.5C1791.3 552 1885.7 473 1932.8 433.5L1980 394L1980 0L1932.8 0C1885.7 0 1791.3 0 1697 0C1602.7 0 1508.3 0 1414 0C1319.7 0 1225.3 0 1131.2 0C1037 0 943 0 848.8 0C754.7 0 660.3 0 566 0C471.7 0 377.3 0 283 0C188.7 0 94.3 0 47.2 0L0 0Z" fill="#ff9db5"></path><path d="M0 576L47.2 534.3C94.3 492.7 188.7 409.3 283 399.5C377.3 389.7 471.7 453.3 566 456.8C660.3 460.3 754.7 403.7 848.8 371.7C943 339.7 1037 332.3 1131.2 350.5C1225.3 368.7 1319.7 412.3 1414 416.2C1508.3 420 1602.7 384 1697 367.7C1791.3 351.3 1885.7 354.7 1932.8 356.3L1980 358L1980 0L1932.8 0C1885.7 0 1791.3 0 1697 0C1602.7 0 1508.3 0 1414 0C1319.7 0 1225.3 0 1131.2 0C1037 0 943 0 848.8 0C754.7 0 660.3 0 566 0C471.7 0 377.3 0 283 0C188.7 0 94.3 0 47.2 0L0 0Z" fill="#fe92ad"></path><path d="M0 417L47.2 422.5C94.3 428 188.7 439 283 419.7C377.3 400.3 471.7 350.7 566 352.3C660.3 354 754.7 407 848.8 399.7C943 392.3 1037 324.7 1131.2 283C1225.3 241.3 1319.7 225.7 1414 232C1508.3 238.3 1602.7 266.7 1697 307.3C1791.3 348 1885.7 401 1932.8 427.5L1980 454L1980 0L1932.8 0C1885.7 0 1791.3 0 1697 0C1602.7 0 1508.3 0 1414 0C1319.7 0 1225.3 0 1131.2 0C1037 0 943 0 848.8 0C754.7 0 660.3 0 566 0C471.7 0 377.3 0 283 0C188.7 0 94.3 0 47.2 0L0 0Z" fill="#fd87a4"></path><path d="M0 174L47.2 169.8C94.3 165.7 188.7 157.3 283 179.8C377.3 202.3 471.7 255.7 566 267.5C660.3 279.3 754.7 249.7 848.8 250.2C943 250.7 1037 281.3 1131.2 273C1225.3 264.7 1319.7 217.3 1414 210.2C1508.3 203 1602.7 236 1697 255.8C1791.3 275.7 1885.7 282.3 1932.8 285.7L1980 289L1980 0L1932.8 0C1885.7 0 1791.3 0 1697 0C1602.7 0 1508.3 0 1414 0C1319.7 0 1225.3 0 1131.2 0C1037 0 943 0 848.8 0C754.7 0 660.3 0 566 0C471.7 0 377.3 0 283 0C188.7 0 94.3 0 47.2 0L0 0Z" fill="#fc7b9b"></path><path d="M0 74L47.2 81C94.3 88 188.7 102 283 125C377.3 148 471.7 180 566 173C660.3 166 754.7 120 848.8 104.8C943 89.7 1037 105.3 1131.2 130C1225.3 154.7 1319.7 188.3 1414 182.2C1508.3 176 1602.7 130 1697 112.5C1791.3 95 1885.7 106 1932.8 111.5L1980 117L1980 0L1932.8 0C1885.7 0 1791.3 0 1697 0C1602.7 0 1508.3 0 1414 0C1319.7 0 1225.3 0 1131.2 0C1037 0 943 0 848.8 0C754.7 0 660.3 0 566 0C471.7 0 377.3 0 283 0C188.7 0 94.3 0 47.2 0L0 0Z" fill="#fb6f92"></path></svg>