<svg xmlns="http://www.w3.org/2000/svg" version="1.1" xmlns:xlink="http://www.w3.org/1999/xlink" viewBox="0 0 700 700" style="overflow: hidden; display: block;" width="700" height="700"><defs><linearGradient id="two-123" x1="350" y1="-350" x2="350" y2="350" spreadMethod="pad" gradientUnits="userSpaceOnUse"><stop offset="0%" stop-color="hsl(1.4, 100%, 67%)" stop-opacity="1"></stop><stop offset="100%" stop-color="hsl(167, 52%, 78%)" stop-opacity="1"></stop></linearGradient></defs><g id="two-0" transform="matrix(1 0 0 1 0 0)" opacity="1"><path transform="matrix(1 0 0 1 350 350)" id="two-455" d="M 296.295923 122.72979 C 284.046762 162.973416 265.731768 206.402407 233.875638 233.875638 C 202.232022 261.165593 157.339347 278.33321 115.558514 278.982933 C 75.210604 279.610374 40.046146 243.961732 0 238.996487 C -33.752892 234.81153 -69.193828 253.844924 -102.680103 247.891696 C -138.157139 241.584549 -176.301193 227.257944 -201.550547 201.550546 C -226.783279 175.860071 -231.648391 134.92094 -246.077551 101.928658 C -260.737373 68.408965 -280.638531 35.44958 -289.683281 0 C -299.923092 -40.13345 -308.362877 -84.072693 -301.636934 -124.942109 C -294.472683 -168.474844 -277.056656 -214.699237 -246.927165 -246.927165 C -216.670416 -279.291213 -171.604015 -300.175859 -128.397544 -309.979091 C -87.039003 -319.36304 -39.139291 -320.830668 -0.000001 -304.499615 C 37.851775 -288.705784 52.024343 -232.386331 91.114116 -219.968937 C 138.302728 -204.978837 198.708565 -267.406637 239.830919 -239.83092 C 275.737359 -215.752878 261.547452 -154.779292 273.081597 -113.114102 C 283.454543 -75.643548 302.074506 -38.677159 306.039082 -0.000001 C 310.181945 40.416478 308.126285 83.862096 296.295923 122.72979 Z " fill="hsl(0, 0%, 100%)" stroke="undefined" stroke-width="1" stroke-opacity="1" fill-opacity="1" visibility="visible" stroke-linecap="butt" stroke-linejoin="miter" stroke-miterlimit="4"></path></g></svg>